<?xml version="1.0" encoding="utf-8"?>
<svg version="1.1" id="Слой_1" xmlns="http://www.w3.org/2000/svg" xmlns:xlink="http://www.w3.org/1999/xlink" x="0px" y="0px"
     viewBox="0 0 800 800" enable-background="new 0 0 800 800" xml:space="preserve">
    <linearGradient id="XMLID_00000153680894252261482230000000934707278873522618_" gradientUnits="userSpaceOnUse" x1="188.9031" y1="411.4919" x2="847.2827" y2="216.3469">
        <stop  offset="0" style="stop-color:#00DC82"/>
        <stop  offset="0.1409" style="stop-color:#00CE8B"/>
        <stop  offset="0.4051" style="stop-color:#00ABA1"/>
        <stop  offset="0.761" style="stop-color:#0071C6"/>
        <stop  offset="1" style="stop-color:#0047E1"/>
    </linearGradient>
    <path id="XMLID_00000053511923324323846380000003871763258219849399_" fill="url(#XMLID_00000153680894252261482230000000934707278873522618_)" d="
	M368.3,196.9c2.6,3,2.4,7.6-0.3,10.5c-2.1,2.2-5,4.7-8.2,6.7c-14.1,8.9-26.5,20.5-38.1,32.4c-6.3,6.5-12.4,13.3-18.1,20.4
	c-6.2,7.8-12,16.4-19.7,22.8c-0.5,0.4-1,0.7-1.6,0.9c-2,0.4-4.1-1.5-5.8-3.4c-2.8-3.2-5.2-6.7-7.4-10.4c-3.6-5.9-7.1-11.9-10.4-18
	c-7-12.8-14.9-27.7-28.3-34.8c-2.5-1.3-5.1-2.3-7.9-2.5c-5.3-0.4-10.6,1.9-14.7,5.3c-5.5,4.5-9.3,11.3-9.2,18.5
	c0.1,8,3.4,15.5,6.8,22.5c0.4,0.8,0.8,1.6,1.2,2.4c4.4,8.7,9.4,17,14.6,25.2c5.1,7.7,14.6,25,21.3,38.3l11,22.1c0.8,1.5,1,3.3,0.7,5
	l-3,16.3c-2.4,11.4-3.5,34-3.2,59.3l0.2,30.9c0,5-4.6,8.9-9.5,7.9c-15.2-2.7-47.1-15.4-61.4-25c-30-19.1-58.2-57.7-69.1-94.4
	c-17.3-58.8-13.3-170.2,9.3-246l2.1-7.3c1.1-3.7,4.7-6.2,8.6-5.7l7.1,0.8c7.7,1.1,28.5,5.3,46,9.6c43.6,10.4,107.7,35.9,140.4,55.8
	C346.2,178,362.1,189.6,368.3,196.9z M702.3,284.1c-0.2-24.1-0.5-48.3-0.7-72.4c0-3.7-0.3-7.6-4.7-8c-5.9-0.5-11.8-1.1-17.7-1.6
	c-16.8-1.2-33.7-0.8-50.6-1c-17.3-0.1-34.5-0.4-51.8,0.1c-2.2,0.1-4.5,0.1-6.7,0.2c-20,0.7-39.6,3-59.4,6.2c-29.2,4.7-56.3,13-83,26
	c-2.8,1.4-5.6,2.8-8.4,4.2c-41.2,20.7-77.4,54.8-98.6,92.8c-12.5,22.1-22.1,58.2-23.7,89.1c-0.7,14.3-0.7,27.7,3,41.7
	c4.6,17,10,33.3,19.1,48.4c4.2,7.1,9,13.8,14.4,20.1c5.5,6.5,12,13.5,11.7,22.1c-0.1,3.4-1.3,6.7-2.5,9.8
	c-14,36.4-32.2,71.3-41.9,109.1c-1.4,5.4-2.5,11.1-0.7,16.3c2,5.6,7.2,9.4,12.6,12.2c6,3.1,13,5.2,19.3,3c8.5-2.9,12.7-12.3,16-20.7
	C363,643.5,379,606,396.3,569c16.2-34.6,35.6-68.2,56.3-100.4c8.4-13,16.9-25.9,26.1-38.3c27.7-38.8,43.3-57.4,79.5-95.2
	c8.1-8.5,15.9-19.2,27.2-23.6c5.7-2.2,12-2.7,18.1-2c3.8,0.4,7.8,1.4,10.8,3.8c4.4,3.6,6,9.6,6.3,15.2c0.2,4.2-0.1,8.6-1.5,12.6
	c-2.4,6.8-7.4,11.9-12.4,16.9c-4.7,4.7-9.2,9.7-13.9,14.5c-53.7,55-99.7,119.7-139.1,194.9c-4.8,9.1-9.6,18.3-13.5,27.9
	c-0.9,2.2-1.7,5-0.2,6.9c0.7,0.8,1.7,1.3,2.7,1.7c24.1,10.2,51.7,6.7,76.6,2.3c26.3-4.6,52.1-11,75.5-24.4
	c32.1-18.5,58.7-47.5,75.6-80.2C697.3,449.5,703.7,407.4,702.3,284.1z"/>
</svg>
